<svg width="816" height="816" viewBox="0 0 816 816" fill="none" xmlns="http://www.w3.org/2000/svg">
<path d="M816 408C816 633.332 633.332 816 408 816C182.668 816 0 633.332 0 408C0 182.668 182.668 0 408 0C633.332 0 816 182.668 816 408ZM20.5288 408C20.5288 621.994 194.006 795.471 408 795.471C621.994 795.471 795.471 621.994 795.471 408C795.471 194.006 621.994 20.5288 408 20.5288C194.006 20.5288 20.5288 194.006 20.5288 408Z" fill="url(#paint0_linear_109_2585)"/>
<circle cx="408" cy="408" r="343" fill="black"/>
<path fill-rule="evenodd" clip-rule="evenodd" d="M225.5 174.5L186 261C282.5 330 278 430.5 186 534L247.5 616.5C251.91 612.846 256.373 609.516 260.877 606.528C305.945 576.624 355.098 580.887 396.156 635.947C399.84 640.885 403.457 646.232 407 652C410.66 646.466 414.438 641.21 418.326 636.26C455.609 588.795 502.99 569.594 553.461 605.222C558.117 608.508 562.799 612.26 567.5 616.5L630 534C548 450 521 345 630 261L588.5 174.5C583.293 178.101 578.188 181.334 573.191 184.204C527.32 210.556 490.566 206.416 467.986 177.347C464.682 173.093 461.682 168.305 459 163C453.5 166.445 448.336 169.477 443.422 172.071C417.393 185.809 398.334 187.269 373.096 172.895C368.314 170.173 363.312 166.882 358 163C354.912 168.642 351.549 173.61 347.939 177.941C321.096 210.156 280.76 207.132 240.832 184.26C235.705 181.323 230.584 178.059 225.5 174.5ZM208.352 255.385C252.557 291.106 275.283 335.297 274.686 384.779C274.096 433.818 250.611 484.866 209.051 534.805L251.203 591.351C276.262 574.812 303.984 566.598 332.383 571.514C360.139 576.319 385.465 593.137 407.438 621.082C426.652 597.744 449.328 579.917 475.164 572.51C504.596 564.072 534.975 569.997 564.332 590.874L606.482 535.234C569.555 494.221 543.893 447.377 540.42 398.782C536.799 348.07 557.557 298.829 607.629 255.982L580.996 200.472C555.453 214.924 530.725 221.73 507.943 219.271C485.084 216.803 466.549 205.287 453.002 187.369C438.154 195.337 423.674 200.635 408.396 201.02C392.65 201.416 378.023 196.596 363.051 187.882C346.428 208.672 324.578 219.086 300.109 219.744C277.828 220.342 254.926 212.829 233.326 200.695L208.352 255.385ZM427.316 267.682C407.808 268.671 382.418 269.958 372.521 259C367.373 263.78 363.307 270.182 359.726 275.821L359.726 275.822C358.437 277.85 357.212 279.78 356.021 281.5C360.021 280 366.727 277.767 370.088 276.824C378.006 274.603 395.461 273.029 399.157 274.202C400.44 274.609 400.439 274.609 398.984 275.275C398.229 275.621 397.083 276.146 395.521 277C367.521 291 343.842 336.085 357.021 370C371.281 406.709 407.771 430.062 447.618 423.868C460.888 422.497 473.933 414.56 476.204 400.806C478.251 388.414 473.751 378.765 462.521 373C453.756 368.501 439.245 367.746 431.881 375.978C428.369 379.906 425.952 386.503 427.521 391.5C429.964 399.281 440.521 408.5 451.44 398.662C454.646 393.234 453.078 388.68 448.003 388.68C444.709 388.68 441.988 392.4 442.643 396.009C443.27 399.468 441.776 400.096 437.867 398.018C432.25 394.341 432.756 386.267 437.139 381.275C440.677 377.246 448.291 374.998 454.692 376.094C463.749 377.645 469.088 384.14 469.088 393.68C469.088 411.222 451.691 416.138 437.588 416.118C409.379 416.077 378.497 399.313 372.521 368.68C368.742 349.307 369.506 331.72 376.015 321.456C382.701 310.913 393.505 306.584 413.4 306.474C420.841 306.433 426.431 307.41 427.021 308C431.521 315.5 430.021 341.5 422.521 350.5C429.583 350.957 435.657 350.799 441.519 350.647H441.519H441.52H441.52H441.52H441.52H441.521H441.522C444.375 350.573 447.179 350.5 450.021 350.5C439.521 332.5 435.213 287.896 447.021 267.5C442.479 266.914 435.403 267.272 427.316 267.682ZM390.021 299C390.21 297.9 392.01 293.385 394.021 291C400.973 283.513 409.95 274.376 420.996 274.95C429.188 275.378 430.66 293.879 428.521 298.5C417.521 294.5 400.021 296.5 390.021 299ZM312.021 483.48C310.973 483.813 307.897 484.334 305.021 483.48C293.044 479.923 272.027 481.831 271.021 508.93C270.408 525.43 283.242 542.351 304.021 544.5C313.164 544.567 322.998 539.309 325.021 532.5C326.224 528.45 325.021 523.5 318.521 518.5C317.402 519.843 313.521 523 311.021 525C329.021 532 302.021 549.517 287.021 522.994C282.021 515.5 280.873 501.648 287.021 495.5C295.507 487.014 304.805 491.815 313.021 497.68C312.521 495.84 312.521 493.67 312.521 491.27C312.521 488.87 312.521 486.24 312.021 483.48ZM423.5 484C419 495.5 420 514.82 426 522H411.5C411.549 521.912 411.601 521.821 411.655 521.726C411.715 521.622 411.777 521.514 411.842 521.402C413.521 518.495 416.843 512.74 414.72 502.445C404.521 499.5 392.194 503.977 389.939 512.115C384.195 532.851 397.339 549.797 418.021 551C426.913 551.517 434.923 547.5 432.709 538.027C430.95 530.5 414.881 532.314 418.5 541C419.794 543.847 420.531 542.85 421.646 541.343C422.684 539.939 424.051 538.092 426.5 538.5C429.5 539 426.99 543.776 426 544.5C419.694 549.567 410.947 540.55 415 534.5C418.123 529.733 425.505 527.975 432.5 531.5C438.081 534.312 439.5 546.5 434.5 552C427 558.5 411.5 556 404.521 554C388 549.266 377.628 527.452 381.5 512.63C384.273 502.014 391.513 492.771 401 487.5C396.73 486.843 392.892 487.696 388.636 488.643C386.412 489.137 384.074 489.657 381.5 490C382.318 487.779 387.484 479 389.5 479C394.189 484.47 401.899 484.233 411.091 483.95C414.999 483.83 419.175 483.702 423.5 484ZM408.809 488.208C413.994 486.305 415.766 487.586 416 493L415.72 498L415.567 497.992C410.394 497.719 406.427 497.51 399 498.5C398 495.5 406.713 488.79 408.809 488.208ZM465 507.182C492.5 495 462.5 474 435 485V490C439.526 489.794 440.914 490.796 442 494V519.5C441.333 520.333 439.6 522.263 438 523.316C436.4 524.369 436.333 525.263 436.5 525.579C441.571 524.869 450.549 524.971 455.322 525.025H455.323C457.376 525.048 458.65 525.063 458.5 525C456.936 524.346 455.073 519.834 453.345 515.649L453.344 515.648L453.344 515.648C452.318 513.163 451.34 510.793 450.5 509.415H455.5C473.508 526.963 484.015 533.671 504.588 531.5C496.825 527.107 489.443 523.763 483.198 520.935C471.676 515.716 464.027 512.252 465 507.182ZM451 501.519V489.5C456 488.29 468 490 462.5 499.019C460.899 501.645 455.338 501.572 452.043 501.529C451.886 501.527 451.735 501.525 451.589 501.523C451.38 501.521 451.183 501.519 451 501.519ZM502 481.5V490L508 492V519.5C507.667 520.167 506.3 521.4 503.5 521V526H518.5V522C517 521.833 514 521.1 514 519.5V497L524.5 513L534.5 497V519.5C534.5 520.667 533.8 523 531 523V526H545V523C544.167 522.833 542.4 521.9 542 519.5C541.6 517.1 541.833 500.167 542 492C542.333 491.333 543.5 489.9 545.5 489.5V481.5L533 482L524.5 495L517 482L502 481.5ZM347 481H333V484C334.6 484.8 335.667 486.333 336 487V520C336 521.6 334.667 522.667 334 523V526H347V523C345 522.6 344.167 520.833 344 520V504H357V520C357 522 355.667 522.833 355 523V526H369V523C367 522.2 366.167 520.667 366 520C365.833 509.667 365.6 488.6 366 487C366.4 485.4 368.167 484.333 369 484V481H352V484C355.2 484.8 356.667 486.333 357 487V496H344V487C344 485.4 346 484.333 347 484V481Z" fill="white"/>
<defs>
<linearGradient id="paint0_linear_109_2585" x1="408" y1="0" x2="408" y2="816" gradientUnits="userSpaceOnUse">
<stop stop-color="#F9EBAE"/>
<stop offset="0.499236" stop-color="#FCC262"/>
<stop offset="0.98025" stop-color="#FCEBA6"/>
</linearGradient>
</defs>
</svg>
